<svg width="138" height="21" viewBox="0 0 138 21" fill="none" xmlns="http://www.w3.org/2000/svg">
<g clip-path="url(#clip0)">
<path fill-rule="evenodd" clip-rule="evenodd" d="M100.795 6.24652L99.0609 11.3176H102.578L100.852 6.24652H100.795ZM102.005 4.01294L106.422 16.0535H104.181L103.142 13.0643H98.5211L97.5233 16.0535H95.2986L99.7152 4.01294H102.005Z" fill="#8A8A8A"/>
<path fill-rule="evenodd" clip-rule="evenodd" d="M107.431 7.42188H114.146V8.23654L109.737 14.4415H114.171V16.0535H107.12V15.0878L111.463 9.03393H107.431V7.42188Z" fill="#8A8A8A"/>
<path fill-rule="evenodd" clip-rule="evenodd" d="M122.882 7.42188V16.0535H120.886V14.9197H120.853C120.592 15.3119 120.241 15.6182 119.802 15.8392C119.363 16.0602 118.871 16.1711 118.326 16.1711C117.35 16.1711 116.607 15.8869 116.097 15.3186C115.587 14.7506 115.332 13.8676 115.332 12.6697V7.42188H117.336V12.4261C117.336 13.1538 117.477 13.7009 117.758 14.0677C118.038 14.4342 118.462 14.6176 119.03 14.6176C119.591 14.6176 120.041 14.4147 120.379 14.0089C120.717 13.6031 120.886 13.0724 120.886 12.4178V7.42188H122.882Z" fill="#8A8A8A"/>
<path fill-rule="evenodd" clip-rule="evenodd" d="M128.571 7.2793C128.729 7.2793 128.87 7.29045 128.996 7.31274C129.121 7.33532 129.228 7.36319 129.315 7.39691V9.45407C129.211 9.37547 129.06 9.30162 128.861 9.23138C128.662 9.16142 128.42 9.12659 128.137 9.12659C127.652 9.12659 127.241 9.33645 126.906 9.75619C126.571 10.1762 126.403 10.8225 126.403 11.6957V16.0534H124.424V7.422H126.403V8.78238H126.436C126.616 8.31192 126.888 7.94402 127.253 7.67813C127.619 7.41252 128.058 7.2793 128.571 7.2793Z" fill="#8A8A8A"/>
<path fill-rule="evenodd" clip-rule="evenodd" d="M135.205 10.8643C135.205 10.1926 135.053 9.68066 134.751 9.32781C134.448 8.97524 134.022 8.7991 133.471 8.7991C132.996 8.7991 132.571 8.97413 132.195 9.32391C131.819 9.67369 131.568 10.1871 131.442 10.8643H135.205ZM136.473 13.8786V15.5497C136.146 15.7624 135.717 15.9343 135.188 16.0659C134.659 16.1975 134.095 16.2632 133.495 16.2632C132.214 16.2632 131.217 15.8744 130.505 15.0963C129.794 14.3184 129.438 13.235 129.438 11.8468C129.438 10.5093 129.819 9.40752 130.579 8.54296C131.34 7.67785 132.304 7.24585 133.471 7.24585C134.632 7.24585 135.536 7.61068 136.182 8.34118C136.828 9.07168 137.151 10.0806 137.151 11.3682V12.3507H131.393C131.48 13.2183 131.752 13.824 132.207 14.1682C132.662 14.5127 133.25 14.6846 133.97 14.6846C134.444 14.6846 134.897 14.6105 135.327 14.4622C135.758 14.3139 136.14 14.1194 136.473 13.8786Z" fill="#8A8A8A"/>
<path fill-rule="evenodd" clip-rule="evenodd" d="M87.6825 9.08465H84.7345V16.0535H82.7307V9.08465H81.3238V7.42215H82.7307V6.22147C82.7307 5.31454 83.018 4.5715 83.5936 3.99234C84.1686 3.41263 84.9061 3.12305 85.8058 3.12305C86.0458 3.12305 86.2584 3.13559 86.4439 3.16095C86.6293 3.18631 86.793 3.22394 86.9348 3.27411V5.02914C86.8691 4.99013 86.7547 4.94247 86.591 4.88644C86.4276 4.83042 86.2394 4.80255 86.0268 4.80255C85.6122 4.80255 85.2935 4.93522 85.0698 5.20111C84.8461 5.46728 84.7345 5.86054 84.7345 6.38089V7.42215H87.6825V5.48233L89.6699 4.86136V7.42215H91.6742V9.08465H89.6699V13.1229C89.6699 13.6549 89.7641 14.0301 89.9523 14.248C90.1404 14.4665 90.4361 14.5755 90.8396 14.5755C90.9542 14.5755 91.0918 14.5479 91.2528 14.4916C91.4135 14.4359 91.5539 14.3687 91.6742 14.2904V15.9693C91.5485 16.0424 91.34 16.1093 91.0481 16.1711C90.7565 16.2324 90.469 16.2634 90.1852 16.2634C89.3509 16.2634 88.7253 16.0354 88.3083 15.5792C87.891 15.1229 87.6825 14.4359 87.6825 13.5175V9.08465ZM74.5396 11.7965C74.5396 12.6978 74.7387 13.3863 75.1367 13.8623C75.5344 14.3381 76.1043 14.5755 76.8461 14.5755C77.5659 14.5755 78.114 14.3381 78.4901 13.8623C78.8664 13.3863 79.0545 12.6808 79.0545 11.7461C79.0545 10.8171 78.8596 10.1159 78.4697 9.64291C78.0798 9.16994 77.533 8.93359 76.8298 8.93359C76.1043 8.93359 75.5415 9.18109 75.1408 9.67663C74.7397 10.1716 74.5396 10.8787 74.5396 11.7965ZM72.4784 11.8637C72.4784 10.4364 72.871 9.30567 73.6562 8.47149C74.4414 7.63759 75.532 7.22064 76.9278 7.22064C78.2419 7.22064 79.2685 7.62226 80.0075 8.4255C80.7463 9.22902 81.1156 10.3132 81.1156 11.6792C81.1156 13.0786 80.7229 14.1923 79.938 15.0206C79.1526 15.8492 78.0839 16.2634 76.7315 16.2634C75.4283 16.2634 74.3936 15.8704 73.6277 15.0836C72.8615 14.2974 72.4784 13.2241 72.4784 11.8637ZM68.0208 9.68917C68.0208 9.98015 68.1109 10.2081 68.2909 10.3734C68.4706 10.5384 68.8687 10.7469 69.485 10.9988C70.2756 11.3235 70.8306 11.6889 71.1493 12.0947C71.4684 12.5005 71.628 12.9916 71.628 13.5683C71.628 14.3799 71.3239 15.032 70.716 15.5242C70.1078 16.0173 69.286 16.2634 68.2499 16.2634C67.901 16.2634 67.5149 16.2202 67.0925 16.1332C66.6697 16.0465 66.3114 15.9359 66.0168 15.8016V13.8035C66.3768 14.0607 66.764 14.265 67.1783 14.4161C67.5929 14.5674 67.9689 14.643 68.3072 14.643C68.7541 14.643 69.0843 14.5786 69.2968 14.4498C69.5094 14.3211 69.6159 14.1056 69.6159 13.8035C69.6159 13.5234 69.5054 13.2868 69.2846 13.0939C69.0639 12.9005 68.6452 12.6781 68.0289 12.4261C67.2983 12.1128 66.7805 11.7603 66.4751 11.3684C66.1696 10.9765 66.0168 10.4785 66.0168 9.87368C66.0168 9.0958 66.3181 8.45616 66.9206 7.95504C67.5231 7.4542 68.3045 7.20392 69.2643 7.20392C69.5586 7.20392 69.8885 7.23736 70.2539 7.30425C70.6191 7.3717 70.9245 7.45866 71.17 7.56485V9.49603C70.9082 9.31682 70.6028 9.16297 70.2539 9.03393C69.9048 8.90516 69.5586 8.84106 69.2151 8.84106C68.8388 8.84106 68.5456 8.91659 68.3357 9.06765C68.1258 9.21871 68.0208 9.42607 68.0208 9.68917ZM58.5004 11.7965C58.5004 12.6978 58.6991 13.3863 59.0974 13.8623C59.4954 14.3381 60.0653 14.5755 60.8068 14.5755C61.5269 14.5755 62.0748 14.3381 62.4508 13.8623C62.8271 13.3863 63.0153 12.6808 63.0153 11.7461C63.0153 10.8171 62.8203 10.1159 62.4304 9.64291C62.0406 9.16994 61.4937 8.93359 60.7905 8.93359C60.0653 8.93359 59.5022 9.18109 59.1015 9.67663C58.7005 10.1716 58.5004 10.8787 58.5004 11.7965ZM56.4391 11.8637C56.4391 10.4364 56.8317 9.30567 57.6169 8.47149C58.4021 7.63759 59.4927 7.22064 60.8885 7.22064C62.2029 7.22064 63.2292 7.62226 63.9683 8.4255C64.707 9.22902 65.0765 10.3132 65.0765 11.6792C65.0765 13.0786 64.6837 14.1923 63.8987 15.0206C63.1135 15.8492 62.0446 16.2634 60.6922 16.2634C59.389 16.2634 58.3543 15.8704 57.5884 15.0836C56.8222 14.2974 56.4391 13.2241 56.4391 11.8637ZM55.5876 7.27917C55.7457 7.27917 55.8877 7.2906 56.0128 7.31317C56.1383 7.33547 56.2447 7.36306 56.3321 7.39679V9.45394C56.2284 9.37563 56.0769 9.30149 55.8782 9.23153C55.6789 9.1613 55.4375 9.12646 55.1543 9.12646C54.6689 9.12646 54.2586 9.33633 53.9233 9.75606C53.588 10.1761 53.4202 10.8224 53.4202 11.6956V16.0535H51.4406V7.42215H53.4202V8.78225H53.4528C53.6328 8.31207 53.9054 7.94417 54.2708 7.678C54.636 7.41239 55.075 7.27917 55.5876 7.27917ZM47.9974 14.5755C48.2917 14.5755 48.6162 14.5058 48.9705 14.3659C49.3251 14.2257 49.6522 14.0412 49.9522 13.8116V15.7007C49.6359 15.8855 49.2773 16.0254 48.8765 16.1204C48.4761 16.2157 48.0354 16.2634 47.5556 16.2634C46.3176 16.2634 45.3116 15.8618 44.5376 15.0585C43.763 14.2553 43.3761 13.2296 43.3761 11.9816C43.3761 10.593 43.7714 9.45004 44.562 8.5512C45.3526 7.65292 46.4732 7.20392 47.9238 7.20392C48.2947 7.20392 48.6694 7.25297 49.0484 7.3508C49.4274 7.44863 49.7285 7.56178 49.9522 7.69055V9.63873C49.6468 9.40907 49.3346 9.23153 49.0155 9.10528C48.6968 8.97958 48.3707 8.91659 48.0381 8.91659C47.2584 8.91659 46.6287 9.17691 46.1487 9.69754C45.6689 10.2179 45.4289 10.9205 45.4289 11.8049C45.4289 12.6781 45.6592 13.3584 46.1202 13.8453C46.5809 14.3322 47.2068 14.5755 47.9974 14.5755ZM40.0143 16.0535H41.9936V7.42215H40.0143V16.0535ZM39.8098 4.92853C39.8098 4.59268 39.9285 4.31119 40.1658 4.0846C40.4028 3.85773 40.6849 3.74457 41.0121 3.74457C41.3609 3.74457 41.6504 3.86079 41.8793 4.09296C42.1084 4.32512 42.2227 4.60383 42.2227 4.92853C42.2227 5.25852 42.1054 5.53584 41.8711 5.75936C41.6365 5.98345 41.3504 6.09521 41.0121 6.09521C40.674 6.09521 40.3892 5.98205 40.1576 5.75546C39.9255 5.52859 39.8098 5.25295 39.8098 4.92853ZM38.1067 4.01325V16.0535H36.0701V6.61612H36.0372L32.3974 16.0535H31.048L27.3181 6.61612H27.2936V16.0535H25.4124V4.01325H28.3324L31.7024 12.9384H31.7512L35.3093 4.01325H38.1067Z" fill="#8A8A8A"/>
<path fill-rule="evenodd" clip-rule="evenodd" d="M0.00317383 9.54084H9.29387V0.00366211H0.00317383V9.54084Z" fill="#8A8A8A"/>
<path fill-rule="evenodd" clip-rule="evenodd" d="M10.2573 9.53718H19.548V0H10.2573V9.53718Z" fill="#8A8A8A"/>
<path fill-rule="evenodd" clip-rule="evenodd" d="M0 20.0665H9.2907V10.5293H0V20.0665Z" fill="#8A8A8A"/>
<path fill-rule="evenodd" clip-rule="evenodd" d="M10.2573 20.0665H19.548V10.5293H10.2573V20.0665Z" fill="#8A8A8A"/>
</g>
<defs>
<clipPath id="clip0">
<rect width="137.383" height="20.0671" fill="white"/>
</clipPath>
</defs>
</svg>
