<svg width="50" height="52" viewBox="0 0 50 52" fill="none" xmlns="http://www.w3.org/2000/svg">
<rect width="49.8223" height="52" fill="#424242"/>
<path fill-rule="evenodd" clip-rule="evenodd" d="M44.2492 11.9306H42.4969V5.20226H44.1473V5.95545C44.3528 5.50288 44.8681 5.10232 45.5384 5.05113C46.6734 5.00076 47.4456 5.65401 47.4456 7.05963V11.9306H45.6419V6.85895C45.6419 6.25688 45.6419 5.75395 45.2293 5.65401C45.0744 5.60363 44.8167 5.65401 44.6104 5.80432C44.3528 6.0562 44.2492 6.35682 44.2492 6.85895V11.9306ZM13.7774 8.56601C13.7774 9.82132 13.7774 10.8256 13.5711 11.3285C13.4162 11.5788 13.2613 11.7299 12.9001 11.7299C12.591 11.7299 12.3847 11.5788 12.282 11.3277C12.0243 10.8256 12.0243 9.82132 12.0243 8.56601C12.0243 7.36107 12.0243 6.30726 12.2812 5.80432C12.3847 5.55326 12.591 5.40295 12.9001 5.40295C13.2613 5.40295 13.4162 5.55326 13.5711 5.80432C13.8288 6.30645 13.7774 7.36107 13.7774 8.56682V8.56601ZM14.4469 5.65401C14.0343 5.3022 13.519 5.05113 12.9001 5.05113C12.282 5.05113 11.818 5.30301 11.354 5.65401C10.6316 6.25688 10.1676 7.36107 10.1676 8.56601C10.1676 9.82132 10.6316 10.8759 11.354 11.4788C11.818 11.8298 12.282 12.0809 12.9001 12.0809C13.519 12.0809 14.0351 11.8298 14.4477 11.4788C15.2207 10.8759 15.6333 9.82132 15.6333 8.56601C15.6333 7.36107 15.2207 6.25688 14.4477 5.65401H14.4469ZM32.4421 14.4916V16.2986H32.0817C31.8754 15.5454 31.5656 14.8929 30.7404 14.8426C30.225 14.793 29.761 15.0944 29.7097 15.5454C29.6583 15.9979 29.8124 16.3985 30.7404 16.9023C31.9268 17.5539 32.8547 17.8553 32.8547 19.2114C32.8547 20.6674 31.5656 21.371 30.4827 21.371H28.4197V18.8604H28.7809C29.0394 20.1653 29.4512 20.9688 30.4313 21.0192C31.0502 21.0192 31.5134 20.6674 31.5134 20.0149C31.5134 19.3617 31.1016 18.9603 30.1223 18.4078C29.0394 17.7554 28.3691 17.3532 28.3691 16.4497C28.3691 15.2448 29.2457 14.4916 30.6376 14.4916H32.4421ZM34.7106 11.9306V7.05963C34.7106 5.65401 33.9376 5.00076 32.8033 5.05113C32.0295 5.10151 31.5656 5.60363 31.3593 6.00501C31.1016 5.3022 30.5341 5.00076 29.7089 5.05113C29.0394 5.10151 28.5233 5.50288 28.317 5.95545V5.20226H26.7188V11.9298H28.4719V6.85976C28.4719 6.35763 28.5233 6.0562 28.8331 5.80513C29.0394 5.65482 29.2457 5.60445 29.3998 5.65482C29.8124 5.75476 29.8124 6.2577 29.8124 6.85976V11.9314H31.5656V6.80857C31.5656 6.35601 31.6683 6.05457 31.9268 5.80351C32.1331 5.6532 32.3394 5.60282 32.4935 5.6532C32.9061 5.75313 32.9575 6.25607 32.9575 6.85813V11.9298H34.7106V11.9306ZM16.8189 11.9306H18.6234V3.79582H16.8189V11.9306ZM22.9027 5.75476C23.2639 6.25688 23.2639 7.46101 23.2639 8.4157C23.2639 9.41995 23.3161 10.7256 22.9035 11.2773C22.7486 11.4788 22.5936 11.5788 22.336 11.5788C21.9755 11.5788 21.7692 11.1774 21.6665 10.5241C21.6143 9.92207 21.6143 9.16888 21.6143 8.36532C21.6143 7.01007 21.7171 5.50288 22.3881 5.50288C22.645 5.50288 22.7486 5.60363 22.9035 5.75476H22.9027ZM25.0178 11.9306V3.79582H23.2125V5.70438C23.0584 5.35257 22.6972 5.10151 22.1818 5.10151C20.8927 5.10151 19.862 6.4072 19.8098 8.4157C19.7584 9.77176 20.2224 12.0313 22.0269 12.0313C22.7486 12.0313 23.1611 11.6291 23.3161 11.2773V11.9306H25.0178ZM39.042 7.91357L38.4745 8.26457C37.9078 8.61638 37.805 9.06895 37.7529 9.57026C37.7015 9.97245 37.7015 10.3234 37.7529 10.9263C37.8042 11.4788 38.1655 11.5788 38.4745 11.4788C38.8357 11.3277 39.042 10.6753 39.042 9.97245V7.91357ZM40.0727 5.40295C40.5375 5.65482 40.8465 6.05538 40.8465 6.9597V11.9306H39.1448V11.1774C38.9393 11.7299 38.3718 12.0809 37.5979 12.0809C36.9798 12.0809 35.897 11.7803 35.897 10.2235C35.897 8.7667 36.8763 8.46607 37.9599 8.01351C38.9393 7.61213 39.042 7.56176 39.042 7.16038V6.05538C39.042 5.60363 38.7843 5.40295 38.2682 5.40295C38.0627 5.45332 37.7015 5.55326 37.7015 5.80432C37.6493 6.10576 38.0105 6.10576 38.0627 6.55751C38.1141 7.26113 37.5466 7.51138 37.0312 7.46182C36.67 7.46182 36.2574 7.26113 36.206 6.70863C36.1547 5.80432 37.1854 5.05113 38.6294 5.05113C39.2997 5.05113 39.7123 5.20226 40.0727 5.40295ZM13.519 17.3028L12.9522 17.6546C12.3847 18.0064 12.282 18.4582 12.2298 18.9603C12.1792 19.3617 12.1792 19.7639 12.2298 20.3156C12.2298 20.9184 12.591 21.0192 12.9001 20.8681C13.3127 20.7178 13.519 20.1157 13.519 19.3617V17.3028ZM14.5504 14.7922C15.0144 15.0936 15.2721 15.4454 15.2721 16.3489V21.3702H13.6233V20.617C13.417 21.1191 12.8503 21.4701 12.0764 21.4701C11.4062 21.4701 10.3747 21.2199 10.3747 19.6631C10.3747 18.2071 11.3548 17.9057 12.3855 17.4531C13.417 17.0022 13.5197 16.9518 13.5197 16.6V15.495C13.5197 14.9937 13.2621 14.793 12.7467 14.8426C12.5404 14.8426 12.18 14.9433 12.18 15.1944C12.1278 15.5462 12.489 15.5462 12.5404 15.9979C12.5918 16.6504 12.0251 16.9014 11.5089 16.9014C11.1485 16.8511 10.7359 16.6504 10.6838 16.0979C10.6324 15.2448 11.6639 14.4908 13.1071 14.4908C13.7782 14.4908 14.19 14.5915 14.5512 14.793L14.5504 14.7922ZM27.0286 16.5001C27.0286 15.0944 26.2548 14.3908 25.1206 14.4916C24.5538 14.5411 24.0891 14.7922 23.8314 15.144V13.1859H22.0775V17.8058C22.0775 19.512 20.8397 21.1191 19.602 21.0688C18.7262 21.0688 18.5199 20.4163 18.4163 19.7135C18.2622 18.7093 18.2622 17.5547 18.365 16.2986C18.4685 15.4958 18.6748 14.8426 19.2937 14.8426C19.7577 14.8426 19.809 15.144 19.6027 15.3447C19.3964 15.5966 19.0874 15.8468 19.2415 16.3993C19.3964 17.0022 20.3758 17.1021 20.8405 16.6512C21.2009 16.249 21.1496 15.5958 20.8919 15.1944C20.5821 14.6923 20.0667 14.4916 19.2937 14.4916C18.3136 14.4916 16.4577 15.3447 16.4577 18.056C16.4577 20.9688 18.365 21.4709 19.4478 21.4709C20.6856 21.4709 21.7677 20.4163 22.0775 19.5624V21.3702H23.8306V16.2986C23.8306 15.7973 23.9334 15.4958 24.1918 15.2439C24.3981 15.0936 24.6558 15.0433 24.8107 15.0936C25.2233 15.1944 25.2233 15.6965 25.2233 16.2986V21.3702H27.0278V16.5001H27.0286ZM8.98201 3.64551V6.50795H8.6208C8.31175 5.10232 7.64148 4.04688 6.71354 3.99732C6.09465 3.94695 5.73344 4.29795 5.42438 4.80007C5.11533 5.40295 4.96041 6.65826 4.96041 8.16382C4.96041 9.57026 5.01179 10.6249 5.16671 11.3781C5.26947 11.7299 5.52714 12.2816 6.19741 12.2816C6.55862 12.2816 6.8163 12.1816 6.97121 11.9809C7.22811 11.6795 7.28027 11.0766 7.28027 10.6753V9.3192C7.28027 8.81707 7.12613 8.51645 6.86767 8.36532C6.66216 8.26457 6.35232 8.26457 6.19819 8.2142V7.8632H9.08477V15.0441H8.72434C8.56942 14.4916 8.46666 14.0894 8.20821 13.6376C7.95131 13.1859 7.48656 12.6838 6.71354 12.6838C5.88835 12.6334 5.26947 13.1355 5.26947 13.8887C5.26947 14.8929 5.88835 15.144 7.02259 15.7469C8.10545 16.3489 9.49814 16.8519 9.49814 18.6085C9.49814 20.3156 8.00191 21.371 6.30095 21.371H3.5685V17.9057H3.92893C4.39291 20.5171 5.52714 20.9688 6.30095 20.9688C7.28027 20.9688 7.74424 20.3659 7.74424 19.5128C7.69286 18.4078 6.91905 18.0064 5.83698 17.4539C4.29015 16.6008 3.5685 16.1986 3.5685 14.793C3.61988 13.5873 4.5992 12.8349 5.68206 12.5334C3.41358 12.2816 2.74332 10.2739 2.7947 8.11426C2.7947 5.95545 4.08385 3.64551 6.61 3.64551H8.98201Z" fill="white"/>
</svg>
