<svg width="165" height="32" viewBox="0 0 165 32" fill="none" xmlns="http://www.w3.org/2000/svg">
<path d="M61.9394 13.5776C61.9394 10.2873 60.5028 8.59806 57.6295 8.50556C56.4863 8.47033 55.3701 8.58925 54.2842 8.86455C53.4175 9.06717 52.834 9.26758 52.5272 9.4702V17.3238C54.3651 18.077 55.9973 18.4272 57.4205 18.3721C60.432 18.2422 61.9394 16.6455 61.9394 13.5776ZM65.4838 13.7141C65.4838 15.3857 64.8835 16.7732 63.6762 17.8766C62.3306 19.1253 60.4657 19.7684 58.0814 19.8037C56.284 19.8411 54.4325 19.4733 52.5272 18.7025V25.8403L49.4448 25.1224V9.27859C49.9507 8.87336 50.6015 8.52539 51.3907 8.23027C53.2252 7.53212 55.4544 7.17313 58.0781 7.15552L58.1219 7.18415C60.5196 7.16433 62.3677 7.80742 63.6661 9.11121C64.8767 10.3071 65.4838 11.8399 65.4838 13.7141Z" fill="#8A8A8A"/>
<path d="M84.3219 18.3986C84.3219 20.6407 83.9779 22.1933 83.29 23.0567C82.5986 23.92 81.2834 24.6093 79.3409 25.1225C77.7661 25.5277 76.063 25.748 74.2352 25.7854L73.726 24.5168C75.5842 24.3517 76.8926 24.1865 77.6514 24.0213C79.1454 23.6909 80.1705 23.1844 80.7337 22.5061C81.1856 21.9533 81.4082 20.8983 81.4082 19.3368V18.8127C79.3005 19.4382 77.0916 19.7487 74.7815 19.7487C73.264 19.7487 71.9252 19.4382 70.7718 18.8127C69.4768 18.1321 68.8293 17.2688 68.8293 16.2227V7.84486L71.9117 7.15552V15.5884C71.9117 16.4892 72.3568 17.1829 73.2471 17.6697C74.1374 18.1564 75.2908 18.3898 76.7038 18.3722C78.1168 18.3524 79.631 17.9956 81.2396 17.2975V7.45945H84.3219V18.3986Z" fill="#8A8A8A"/>
<path d="M96.3545 19.6938C95.9869 19.7136 95.6497 19.7224 95.3394 19.7224C93.5959 19.7224 92.2368 19.4515 91.2655 18.9075C90.2977 18.3636 89.812 17.6125 89.812 16.6545V8.726H87.7009V7.45964H89.812V4.09663L92.891 3.38086V7.45964H96.3545V8.726H92.891V16.5995C92.891 17.3549 93.2013 17.89 93.8218 18.2028C94.3547 18.4605 95.2011 18.608 96.3545 18.6455V19.6938Z" fill="#8A8A8A"/>
<path d="M115.017 19.5286H111.935V11.7586C111.935 10.968 111.652 10.2875 111.089 9.71925C110.438 9.07616 109.534 8.75461 108.374 8.75461C106.961 8.75461 105.194 9.24134 103.073 10.2148V19.5286H99.9902V0.956057L103.073 0.321777V8.78104C105.042 7.84504 107.194 7.37594 109.531 7.37594C111.163 7.37594 112.485 7.73492 113.497 8.45069C114.512 9.16646 115.017 10.0584 115.017 11.1244V19.5286Z" fill="#8A8A8A"/>
<path d="M131.4 13.2605C131.4 11.9963 131.033 10.9524 130.301 10.1265C129.431 9.12004 128.079 8.58926 126.251 8.5342C122.872 8.66194 121.185 10.2433 121.185 13.2737C121.185 14.6634 121.536 15.8241 122.244 16.7557C123.148 17.9428 124.504 18.5286 126.311 18.5088C129.704 18.4912 131.4 16.7425 131.4 13.2605ZM134.776 13.2737C134.776 15.0731 134.071 16.5707 132.665 17.7666C131.117 19.1056 128.979 19.7773 126.251 19.7773C123.546 19.7773 121.438 19.1056 119.917 17.7666C118.538 16.5707 117.85 15.0731 117.85 13.2737C117.85 11.5823 118.595 10.1596 120.086 9.00111C121.661 7.77218 123.732 7.15552 126.291 7.15552C128.851 7.15552 130.935 7.77218 132.54 9.00111C134.031 10.1596 134.776 11.5823 134.776 13.2737Z" fill="#8A8A8A"/>
<path d="M152.447 19.5283H149.365V11.318C149.365 10.4172 148.95 9.71465 148.121 9.20811C147.291 8.70377 146.185 8.45931 144.806 8.47913C143.342 8.49675 141.949 8.80948 140.627 9.41513V19.5283H137.545V9.16626C139.319 8.32276 140.951 7.77217 142.442 7.5145C143.848 7.27444 145.089 7.15552 146.158 7.15552C146.89 7.15552 147.578 7.20177 148.225 7.29426C149.436 7.47706 150.421 7.81622 151.179 8.31395C152.026 8.86454 152.447 9.52525 152.447 10.2983V19.5283Z" fill="#8A8A8A"/>
<path d="M19.0012 1.03024C17.4153 1.03505 15.9008 1.12338 14.5682 1.27737C10.6426 1.73029 9.92982 2.6783 9.92982 4.42658V6.73552H19.2066V7.50517H9.92982H6.44834C3.75225 7.50517 1.39148 8.56346 0.653062 10.5767C-0.198695 12.8843 -0.236475 14.3243 0.653062 16.7339C1.31249 18.5275 2.88728 19.8054 5.58337 19.8054H8.77293V17.0375C8.77293 15.0379 11.4222 13.274 14.5682 13.274H23.8342C26.4135 13.274 28.4725 11.8871 28.4725 10.1954V4.42658C28.4725 2.78473 26.3516 1.55139 23.8342 1.27737C22.2405 1.10413 20.587 1.02542 19.0012 1.03024ZM13.9844 2.88728C14.9426 2.88728 15.7251 3.40666 15.7251 4.04528C15.7251 4.68164 14.9426 5.19622 13.9844 5.19622C13.0227 5.19622 12.2436 4.68164 12.2436 4.04528C12.2436 3.40666 13.0227 2.88728 13.9844 2.88728Z" fill="#8A8A8A"/>
<path d="M29.6296 7.50513V10.1954C29.6296 12.2811 26.9219 14.0366 23.8342 14.0366H14.5681C12.03 14.0366 9.92969 15.4552 9.92969 17.1152V22.884C9.92969 24.5259 12.1159 25.4916 14.5681 25.9626C17.5047 26.5265 20.3207 26.6284 23.8342 25.9626C26.1697 25.521 28.4726 24.6323 28.4726 22.884V20.5751H19.2066V19.8054H28.4726H33.1111C35.8072 19.8054 36.8119 18.5773 37.7495 16.7339C38.7181 14.8361 38.6769 13.0111 37.7495 10.5767C37.0832 8.82386 35.8106 7.50513 33.1111 7.50513H29.6296ZM24.4181 22.1144C25.3797 22.1144 26.1588 22.629 26.1588 23.2653C26.1588 23.9039 25.3797 24.4233 24.4181 24.4233C23.4598 24.4233 22.6773 23.9039 22.6773 23.2653C22.6773 22.629 23.4598 22.1144 24.4181 22.1144Z" fill="#8A8A8A"/>
<path d="M158.45 5.66504H158.99V3.45158H160.27V3.18774H157.169V3.45158H158.45V5.66504ZM160.749 5.66504H161.211V3.64346L162.213 5.66478H162.727L163.771 3.65031V5.66504H164.275V3.18774H163.609L162.468 5.31006L161.494 3.18774H160.749V5.66504Z" fill="#8A8A8A"/>
<path opacity="0.44382" d="M31.7437 29.8843C31.7437 30.091 31.4221 30.2957 30.7973 30.4867C30.1726 30.6777 29.2569 30.8512 28.1025 30.9974C26.9481 31.1436 25.5776 31.2596 24.0693 31.3387C22.561 31.4178 20.9445 31.4585 19.3119 31.4585C17.6793 31.4585 16.0628 31.4178 14.5545 31.3387C13.0462 31.2596 11.6757 31.1436 10.5213 30.9974C9.36691 30.8512 8.45119 30.6777 7.82644 30.4867C7.20168 30.2957 6.88013 30.091 6.88013 29.8843C6.88013 29.6775 7.20168 29.4728 7.82644 29.2818C8.45119 29.0909 9.36691 28.9173 10.5213 28.7711C11.6757 28.625 13.0462 28.509 14.5545 28.4299C16.0628 28.3508 17.6793 28.3101 19.3119 28.3101C20.9445 28.3101 22.561 28.3508 24.0693 28.4299C25.5776 28.509 26.9481 28.625 28.1025 28.7711C29.2569 28.9173 30.1726 29.0909 30.7973 29.2818C31.4221 29.4728 31.7437 29.6775 31.7437 29.8843Z" fill="#8A8A8A"/>
</svg>
