<svg width="102" height="25" viewBox="0 0 102 25" fill="none" xmlns="http://www.w3.org/2000/svg">
<g clip-path="url(#clip0)">
<path d="M12.9678 5.71749L11.5984 7.07363C13.8392 9.29274 13.8392 12.868 11.5984 15.046C9.35757 17.2651 5.74733 17.2651 3.54799 15.046C1.30715 12.8269 1.30715 9.25165 3.54799 7.07363L7.09598 3.56001L7.59395 3.06688V0.41626L2.24084 5.71749C-0.746946 8.67632 -0.746946 13.4433 2.24084 16.4021C5.22862 19.361 10.0423 19.361 12.9678 16.4021C15.9556 13.4228 15.9556 8.67632 12.9678 5.71749Z" fill="#8A8A8A"/>
<path d="M10.2913 5.38882C10.8414 5.38882 11.2873 4.94725 11.2873 4.40255C11.2873 3.85784 10.8414 3.41626 10.2913 3.41626C9.7413 3.41626 9.29541 3.85784 9.29541 4.40255C9.29541 4.94725 9.7413 5.38882 10.2913 5.38882Z" fill="#8A8A8A"/>
<path d="M26.8069 12.4981H24.5039V18.3541H22.761V1.69019C22.761 1.69019 26.7447 1.69019 26.9937 1.69019C31.4131 1.69019 33.5294 3.84767 33.5294 6.86814C33.5917 10.5872 30.9774 12.4981 26.8069 12.4981ZM26.9937 3.35452C26.8069 3.35452 24.5661 3.35452 24.5661 3.35452V11.0187L26.9314 10.9571C30.1059 10.8954 31.8488 9.66258 31.8488 7.07361C31.8488 4.64902 30.1059 3.35452 26.9937 3.35452Z" fill="#8A8A8A"/>
<path d="M41.3308 18.2924L40.3349 20.943C39.2145 23.9018 38.0318 24.7648 36.3512 24.7648C35.4175 24.7648 34.7328 24.5182 33.9858 24.21L34.4838 22.669C35.044 22.9772 35.6665 23.2238 36.3512 23.2238C37.2849 23.2238 37.9696 22.7306 38.9032 20.3882L39.7124 18.2307L34.9195 6.18994H36.7246L40.5839 16.2582L44.3808 6.18994H46.1237L41.3308 18.2924Z" fill="#8A8A8A"/>
<path d="M51.8088 3.3544V18.4157H50.0659V3.3544H44.1526V1.75171H57.6806V3.3544C57.6599 3.3544 51.8088 3.3544 51.8088 3.3544Z" fill="#8A8A8A"/>
<path d="M62.5981 18.7238C59.1746 18.7238 56.6848 16.1965 56.6848 12.313C56.6848 8.42955 59.2991 5.84058 62.7849 5.84058C66.2706 5.84058 68.6982 8.3679 68.6982 12.2514C68.636 16.1348 66.0216 18.7238 62.5981 18.7238ZM62.6604 7.38163C60.0461 7.38163 58.3654 9.41583 58.3654 12.313C58.3654 15.2718 60.1083 17.306 62.7226 17.306C65.3369 17.306 67.0176 15.2718 67.0176 12.3747C67.0176 9.35418 65.2747 7.38163 62.6604 7.38163Z" fill="#8A8A8A"/>
<path d="M72.8686 18.4156H71.188V6.18992L72.8686 5.82007V8.40905C73.6778 6.86799 74.8605 5.82007 76.4789 5.82007C77.288 5.82007 78.035 6.06664 78.6574 6.37485L78.2217 7.91591C77.6615 7.6077 77.0391 7.36112 76.3544 7.36112C75.0472 7.36112 73.8645 8.3474 72.8686 10.5049V18.4156Z" fill="#8A8A8A"/>
<path d="M85.2138 18.7238C81.4791 18.7238 79.176 16.0732 79.176 12.313C79.176 8.49119 81.7281 5.84058 85.2138 5.84058C86.7077 5.84058 88.0149 6.21042 89.0731 6.88849L88.6373 8.36791C87.7037 7.75148 86.521 7.38163 85.2138 7.38163C82.5373 7.38163 80.9189 9.35417 80.9189 12.2514C80.9189 15.2102 82.6618 17.1827 85.2761 17.1827C86.521 17.1827 87.7659 16.8129 88.6996 16.1965L89.0731 17.7375C87.9526 18.3539 86.6455 18.7238 85.2138 18.7238Z" fill="#8A8A8A"/>
<path d="M99.3644 18.4157V10.5049C99.3644 8.34745 98.4929 7.42282 96.7501 7.42282C95.3184 7.42282 93.949 8.16253 92.9531 9.14881V18.4157H91.2725V0.457253L92.9531 0.0874023C92.9531 0.0874023 92.9531 7.75158 92.9531 7.81322C94.2602 6.51874 95.8786 5.90232 97.248 5.90232C99.6133 5.90232 101.107 7.44337 101.107 10.094V18.4362H99.3644V18.4157Z" fill="#8A8A8A"/>
</g>
<defs>
<clipPath id="clip0">
<rect width="101.107" height="24.698" fill="white" transform="translate(0 0.0874023)"/>
</clipPath>
</defs>
</svg>
