<?xml version="1.0" standalone="no"?>
<!DOCTYPE svg PUBLIC "-//W3C//DTD SVG 20010904//EN"
 "http://www.w3.org/TR/2001/REC-SVG-20010904/DTD/svg10.dtd">
<svg version="1.0" xmlns="http://www.w3.org/2000/svg"
 width="400.000000pt" height="123.000000pt" viewBox="0 0 400.000000 123.000000"
 preserveAspectRatio="xMidYMid meet">
<metadata>
Created by potrace 1.15, written by Peter Selinger 2001-2017
</metadata>
<g transform="translate(0.000000,123.000000) scale(0.100000,-0.100000)"
fill="#424242" stroke="none">
<path d="M2695 1224 c-22 -2 -110 -9 -195 -15 -542 -38 -1149 -158 -1655 -327
l-170 -57 55 -6 c87 -9 120 -35 120 -93 0 -24 -3 -26 -49 -26 -44 0 -50 3 -53
23 -2 17 -11 23 -34 25 -21 2 -33 -2 -37 -12 -11 -29 4 -46 75 -82 85 -45 108
-73 108 -129 0 -81 -63 -122 -170 -112 -68 6 -105 27 -119 69 -21 61 -17 68
42 68 51 0 53 -1 62 -32 8 -25 16 -34 36 -36 31 -4 53 20 44 47 -3 11 -39 38
-80 60 -40 23 -81 51 -89 63 -19 26 -21 99 -4 116 31 31 -11 15 -158 -58 -451
-225 -549 -441 -261 -580 96 -46 202 -74 382 -102 190 -29 618 -36 905 -14
641 48 1308 183 1795 364 l100 37 -57 5 c-68 6 -109 33 -121 80 -5 19 -7 83
-5 143 3 108 3 109 34 137 82 73 240 38 259 -57 l7 -33 -56 0 c-48 0 -56 3
-56 19 0 27 -26 44 -55 37 l-26 -7 3 -122 3 -122 35 0 c34 0 35 1 38 43 3 37
1 42 -17 42 -17 0 -21 6 -21 30 l0 30 75 0 75 0 0 -60 c0 -33 -6 -76 -14 -95
-14 -34 -14 -34 8 -25 54 20 236 116 301 157 138 89 210 166 235 251 67 222
-360 366 -1065 360 -104 -1 -208 -3 -230 -4z m-574 -414 c44 -12 64 -34 74
-77 l7 -33 -56 0 c-49 0 -55 2 -58 23 -2 17 -10 22 -33 22 -21 0 -31 -5 -33
-18 -5 -26 14 -45 77 -77 81 -41 104 -69 103 -127 0 -40 -5 -52 -30 -75 -57
-50 -182 -49 -234 2 -20 21 -28 38 -28 64 l0 36 55 0 c51 0 55 -2 55 -24 0
-32 24 -50 55 -42 18 5 25 13 25 30 0 28 -19 46 -86 79 -60 30 -104 78 -104
113 0 21 25 84 33 84 1 0 20 7 42 15 48 17 87 18 136 5z m-931 -3 c0 -2 16
-82 35 -177 19 -95 35 -182 35 -192 0 -17 -7 -19 -52 -16 l-53 3 -23 155 c-13
85 -26 162 -29 170 -3 8 -16 -48 -29 -125 -38 -230 -27 -205 -84 -205 -27 0
-51 3 -53 8 -4 6 56 334 68 370 3 8 31 12 95 12 49 0 90 -1 90 -3z m334 -6 c3
-4 15 -67 27 -139 12 -72 25 -129 29 -127 4 2 10 26 14 52 3 27 13 87 22 136
l16 87 82 0 83 0 6 -187 c4 -103 3 -191 -2 -196 -4 -4 -28 -7 -52 -5 l-44 3
-5 160 -5 160 -29 -150 c-16 -82 -31 -156 -34 -163 -3 -9 -21 -12 -56 -10
l-51 3 -30 157 c-17 86 -34 160 -38 164 -4 4 -7 -68 -7 -159 l0 -167 -50 0
-50 0 0 98 c0 53 3 141 7 195 l6 97 78 0 c43 0 80 -4 83 -9z m884 -153 l3
-158 26 -6 c46 -12 53 12 53 178 l0 148 50 0 50 0 0 -166 0 -166 -28 -28 c-60
-59 -213 -47 -247 21 -11 21 -15 67 -15 184 l0 156 53 -3 52 -3 3 -157z m492
34 c22 -70 40 -133 40 -139 0 -7 5 -15 11 -19 9 -5 10 32 4 140 l-7 147 51 -3
52 -3 0 -185 0 -185 -72 0 -73 0 -47 143 c-25 79 -49 146 -53 149 -3 4 -3 -62
1 -145 l6 -152 -51 0 -52 0 0 190 0 190 75 0 74 0 41 -128z"/>
</g>
</svg>
