<svg width="86" height="11" viewBox="0 0 86 11" fill="none" xmlns="http://www.w3.org/2000/svg">
<g clip-path="url(#clip0)">
<path d="M42.3363 4.42207H36.9477V0.331018H35.3174V10.7199H36.9477V5.79707H42.3363V10.7199H43.9494V0.331018H42.3363V4.42207ZM26.4366 0.297068C25.8445 0.280093 24.6432 0.280092 23.5793 0.280092V10.7114H25.2267V6.75617C25.6386 6.75617 26.4881 6.72222 27.1745 6.70525C28.1355 6.68827 30.641 6.21296 30.6239 3.35262C30.6496 0.127315 27.0372 0.297068 26.4366 0.297068ZM26.3508 5.37268H25.261V1.61265H26.1877C26.6168 1.61265 29.148 1.42592 29.2252 3.3696C29.3282 5.27932 27.3289 5.37268 26.3508 5.37268ZM11.2319 0.280092L11.2491 10.7114H17.8646V9.3534H12.8965V5.81404H16.4145C16.4145 5.51698 16.3974 5.0841 16.4145 4.51543H12.8965V1.67207H17.8646C17.8475 0.848764 17.8646 0.280092 17.8646 0.280092H11.2319ZM1.61314 2.82639C1.61314 1.12037 3.89555 1.05247 5.2427 2.14738C5.70604 0.831789 5.74037 0.738424 5.74037 0.738424C1.81049 -1.12886 0.017161 1.34105 0.017161 2.91975C0.017161 6.69676 5.43147 5.89043 4.65064 8.54707C4.37606 9.51466 2.63422 10.0664 0.626378 8.86111C0.480509 9.26852 0.240254 9.7608 0 10.2531C2.65138 11.6281 6.09217 10.966 6.20371 8.13117C6.35816 4.56636 1.61314 4.82099 1.61314 2.82639ZM71.1496 3.20833C70.9094 0.110338 67.8719 0.347992 67.2026 0.314042C66.6449 0.297066 65.4608 0.280092 64.4397 0.280092V10.6944H66.0871V6.31481C66.6449 6.31481 66.8251 6.31482 67.6659 6.28086L70.6691 10.6944H72.6684L69.3477 6.00926C70.2401 5.68673 71.2784 4.93133 71.1496 3.20833ZM67.1082 5.09259C66.7393 5.09259 66.4561 5.09259 66.0871 5.07562V1.55324H66.9538C67.3656 1.55324 69.5279 1.42593 69.7167 3.13194C69.9484 5.15201 67.5544 5.09259 67.1082 5.09259ZM82.0212 0.297068H80.1163L76.6669 10.7284H78.2972C78.812 8.84413 78.9837 8.30941 78.9837 8.30941L83.2482 8.29244C83.7458 9.68441 84.1148 10.7454 84.1148 10.7454H85.8052L82.0212 0.297068ZM79.3612 7.11265L81.0258 1.96065H81.043L82.7848 7.09568L79.3612 7.11265ZM54.1774 0C50.8224 0 48.6344 2.45293 48.6344 5.5C48.6344 8.54707 50.8224 11 54.1774 11C57.5324 11 59.7204 8.54707 59.7204 5.5C59.7204 2.45293 57.5324 0 54.1774 0ZM54.1774 9.49768C51.7148 9.49768 50.3247 7.72376 50.3247 5.5C50.3247 3.3017 51.7148 1.50231 54.1774 1.50231C56.6228 1.50231 58.03 3.27623 58.03 5.5C58.03 7.6983 56.64 9.49768 54.1774 9.49768Z" fill="#666666"/>
</g>
<defs>
<clipPath id="clip0">
<rect width="85.8052" height="11" fill="white"/>
</clipPath>
</defs>
</svg>
