<svg width="138" height="21" fill="none" xmlns="http://www.w3.org/2000/svg"><g clip-path="url(#clip0)" fill-rule="evenodd" clip-rule="evenodd" fill="#8A8A8A"><path d="M100.795 6.247l-1.734 5.07h3.517l-1.726-5.07h-.057zm1.21-2.234l4.417 12.04h-2.241l-1.039-2.989h-4.62l-.999 2.99H95.3l4.416-12.041h2.29zm5.426 3.409h6.715v.815l-4.409 6.204h4.434v1.612h-7.051v-.965l4.343-6.054h-4.032V7.422zm15.451 0v8.631h-1.996V14.92h-.033a2.688 2.688 0 01-1.051.92 3.236 3.236 0 01-1.476.331c-.976 0-1.719-.284-2.229-.852-.51-.568-.765-1.451-.765-2.65V7.423h2.004v5.004c0 .728.141 1.275.422 1.642.28.366.704.55 1.272.55.561 0 1.011-.203 1.349-.61.338-.405.507-.936.507-1.59V7.422h1.996zm5.689-.142c.158 0 .299.01.425.033.125.022.232.05.319.084v2.057a1.712 1.712 0 00-.454-.223 2.198 2.198 0 00-.724-.104c-.485 0-.896.21-1.231.63-.335.42-.503 1.066-.503 1.939v4.357h-1.979V7.422h1.979v1.36h.033c.18-.47.452-.838.817-1.104.366-.265.805-.399 1.318-.399zm6.634 3.584c0-.671-.152-1.183-.454-1.536-.303-.353-.729-.529-1.28-.529-.475 0-.9.175-1.276.525-.376.35-.627.863-.753 1.54h3.763zm1.268 3.015v1.67c-.327.213-.756.385-1.285.517a6.992 6.992 0 01-1.693.197c-1.281 0-2.278-.389-2.99-1.167-.711-.778-1.067-1.861-1.067-3.25 0-1.337.381-2.438 1.141-3.303.761-.865 1.725-1.297 2.892-1.297 1.161 0 2.065.365 2.711 1.095.646.73.969 1.74.969 3.027v.983h-5.758c.087.867.359 1.473.814 1.817.455.345 1.043.517 1.763.517.474 0 .927-.075 1.357-.223a4.365 4.365 0 001.146-.583zm-48.79-4.794h-2.949v6.968h-2.003V9.085h-1.407V7.422h1.407v-1.2c0-.907.287-1.65.863-2.23.575-.58 1.312-.869 2.212-.869.24 0 .452.013.638.038.185.025.349.063.49.113V5.03a2.038 2.038 0 00-.343-.143 1.738 1.738 0 00-.564-.083c-.415 0-.734.132-.957.398-.224.266-.335.66-.335 1.18v1.041h2.948v-1.94l1.987-.62v2.56h2.004v1.663H89.67v4.038c0 .532.094.907.282 1.125.188.219.484.328.888.328.114 0 .252-.028.413-.084.16-.056.3-.123.421-.202v1.68c-.126.072-.334.14-.626.201a4.201 4.201 0 01-.863.092c-.834 0-1.46-.228-1.877-.684-.417-.456-.626-1.143-.626-2.062V9.085zM74.54 11.796c0 .902.199 1.59.597 2.066.397.476.967.713 1.71.713.719 0 1.267-.237 1.643-.713.376-.476.565-1.181.565-2.116 0-.929-.195-1.63-.585-2.103-.39-.473-.937-.71-1.64-.71-.726 0-1.288.248-1.69.744-.4.495-.6 1.202-.6 2.12zm-2.062.068c0-1.428.393-2.558 1.178-3.393.785-.833 1.876-1.25 3.272-1.25 1.314 0 2.34.401 3.08 1.204.738.804 1.108 1.888 1.108 3.254 0 1.4-.393 2.513-1.178 3.342-.785.828-1.854 1.242-3.207 1.242-1.303 0-2.337-.393-3.103-1.18-.766-.786-1.15-1.859-1.15-3.22zm-4.457-2.175c0 .291.09.52.27.684.18.165.578.374 1.194.626.79.324 1.346.69 1.664 1.096.32.405.479.897.479 1.473 0 .812-.304 1.464-.912 1.956-.608.493-1.43.74-2.466.74-.349 0-.735-.044-1.157-.13a5.062 5.062 0 01-1.076-.332v-1.998c.36.257.747.461 1.161.612.415.151.79.227 1.13.227.446 0 .776-.064.989-.193.212-.129.319-.344.319-.646 0-.28-.11-.517-.331-.71-.221-.194-.64-.416-1.256-.668-.73-.313-1.248-.666-1.554-1.058-.305-.392-.458-.89-.458-1.494 0-.778.301-1.418.904-1.919.602-.5 1.383-.751 2.343-.751.295 0 .624.033.99.1.365.068.67.155.916.26v1.932a4.186 4.186 0 00-.916-.462 2.985 2.985 0 00-1.039-.193c-.376 0-.67.076-.88.227a.725.725 0 00-.314.621zm-9.52 2.107c0 .902.198 1.59.596 2.066.398.476.968.713 1.71.713.72 0 1.268-.237 1.644-.713.376-.476.564-1.181.564-2.116 0-.929-.195-1.63-.585-2.103-.39-.473-.936-.71-1.64-.71-.725 0-1.288.248-1.688.744-.401.495-.602 1.202-.602 2.12zm-2.062.068c0-1.428.393-2.558 1.178-3.393.785-.833 1.876-1.25 3.272-1.25 1.314 0 2.34.401 3.08 1.204.738.804 1.107 1.888 1.107 3.254 0 1.4-.392 2.513-1.177 3.342-.785.828-1.854 1.242-3.207 1.242-1.303 0-2.338-.393-3.104-1.18-.766-.786-1.149-1.859-1.149-3.22zm-.851-4.585c.158 0 .3.012.425.034.125.022.232.05.32.084v2.057a1.712 1.712 0 00-.455-.222 2.19 2.19 0 00-.724-.106c-.485 0-.895.21-1.23.63-.336.42-.504 1.066-.504 1.94v4.357h-1.98v-8.63h1.98v1.36h.033c.18-.47.452-.839.818-1.105.365-.266.804-.399 1.317-.399zm-7.59 7.296c.294 0 .618-.07.973-.21.354-.14.681-.324.981-.553V15.7a3.904 3.904 0 01-1.075.42 5.73 5.73 0 01-1.321.142c-1.238 0-2.244-.401-3.018-1.205-.775-.803-1.162-1.828-1.162-3.076 0-1.389.395-2.532 1.186-3.43.79-.9 1.911-1.348 3.362-1.348.37 0 .745.049 1.124.147.38.098.68.21.904.34v1.948a4.023 4.023 0 00-.936-.534 2.644 2.644 0 00-.978-.188c-.78 0-1.41.26-1.89.78s-.72 1.224-.72 2.108c0 .873.231 1.553.692 2.04.46.487 1.087.73 1.877.73zm-7.984 1.479h1.98V7.421h-1.98v8.631zM39.81 4.928c0-.336.118-.618.356-.844a1.18 1.18 0 01.846-.34c.349 0 .638.116.867.348.23.232.344.51.344.836 0 .33-.118.607-.352.83-.235.224-.52.336-.859.336-.338 0-.623-.113-.854-.34a1.113 1.113 0 01-.348-.826zm-1.703-.916v12.04H36.07V6.617h-.033l-3.64 9.438h-1.349l-3.73-9.438h-.024v9.438h-1.882V4.014h2.92l3.37 8.924h.05l3.557-8.925h2.798zM.003 9.54h9.29V.005H.004V9.54zm10.254-.003h9.291V0h-9.29v9.537zM0 20.067h9.29v-9.538H0v9.538zm10.257 0h9.291v-9.538h-9.29v9.538z"/></g><defs><clipPath id="clip0"><path fill="#fff" d="M0 0h137.383v20.067H0z"/></clipPath></defs></svg>