<svg width="102" height="25" fill="none" xmlns="http://www.w3.org/2000/svg"><g clip-path="url(#clip0)" fill="#8A8A8A"><path d="M12.968 5.717l-1.37 1.357c2.241 2.219 2.241 5.794 0 7.972-2.24 2.22-5.85 2.22-8.05 0-2.24-2.22-2.24-5.794 0-7.972L7.096 3.56l.498-.493V.417l-5.353 5.3a7.489 7.489 0 000 10.685c2.988 2.959 7.801 2.959 10.727 0 2.988-2.98 2.988-7.726 0-10.685z"/><path d="M10.291 5.389c.55 0 .996-.442.996-.986a.991.991 0 00-.996-.987.991.991 0 00-.996.987c0 .544.446.986.996.986zm16.516 7.109h-2.303v5.856H22.76V1.69h4.233c4.42 0 6.535 2.158 6.535 5.178.063 3.72-2.552 5.63-6.722 5.63zm.187-9.143h-2.428v7.664l2.365-.062c3.175-.062 4.918-1.294 4.918-3.883 0-2.425-1.743-3.72-4.855-3.72zM41.33 18.292l-.995 2.651c-1.12 2.959-2.303 3.822-3.984 3.822-.934 0-1.618-.247-2.365-.555l.498-1.541c.56.308 1.182.555 1.867.555.934 0 1.619-.493 2.552-2.836l.81-2.157L34.918 6.19h1.806l3.859 10.068L44.38 6.19h1.743L41.33 18.292z"/><path d="M51.809 3.354v15.062h-1.743V3.354h-5.913V1.752H57.68v1.602h-5.872zm10.789 15.37c-3.423 0-5.913-2.527-5.913-6.411 0-3.883 2.614-6.472 6.1-6.472 3.486 0 5.913 2.527 5.913 6.41-.062 3.884-2.676 6.473-6.1 6.473zm.062-11.342c-2.614 0-4.295 2.034-4.295 4.931 0 2.959 1.743 4.993 4.358 4.993 2.614 0 4.295-2.034 4.295-4.931 0-3.02-1.743-4.993-4.358-4.993zm10.209 11.034h-1.681V6.19l1.68-.37v2.59c.81-1.542 1.993-2.59 3.61-2.59.81 0 1.557.247 2.18.555l-.436 1.54c-.56-.307-1.183-.554-1.868-.554-1.307 0-2.49.986-3.485 3.144v7.91zm12.345.308c-3.735 0-6.038-2.65-6.038-6.411 0-3.822 2.552-6.472 6.038-6.472 1.494 0 2.8.37 3.86 1.047l-.437 1.48c-.933-.617-2.116-.986-3.423-.986-2.677 0-4.295 1.972-4.295 4.87 0 2.958 1.743 4.93 4.357 4.93 1.245 0 2.49-.37 3.424-.985l.373 1.54a7.965 7.965 0 01-3.86.987zm14.15-.308v-7.911c0-2.158-.871-3.082-2.614-3.082-1.432 0-2.801.74-3.797 1.726v9.267h-1.68V.457l1.68-.37v7.726c1.307-1.294 2.926-1.91 4.295-1.91 2.365 0 3.859 1.54 3.859 4.191v8.342h-1.743v-.02z"/></g><defs><clipPath id="clip0"><path fill="#fff" transform="translate(0 .087)" d="M0 0h101.107v24.698H0z"/></clipPath></defs></svg>