<svg width="165" height="32" fill="none" xmlns="http://www.w3.org/2000/svg"><path d="M61.94 13.578c0-3.29-1.437-4.98-4.31-5.072a12.042 12.042 0 00-3.346.359c-.867.202-1.45.403-1.757.605v7.854c1.838.753 3.47 1.103 4.893 1.048 3.012-.13 4.52-1.727 4.52-4.794zm3.544.136c0 1.672-.6 3.06-1.808 4.163-1.345 1.248-3.21 1.891-5.595 1.927-1.797.037-3.649-.33-5.554-1.101v7.137l-3.082-.718V9.28c.506-.406 1.157-.754 1.946-1.049 1.834-.698 4.063-1.057 6.687-1.074l.044.028c2.398-.02 4.246.623 5.544 1.927 1.21 1.196 1.818 2.729 1.818 4.603zm18.838 4.685c0 2.242-.344 3.794-1.032 4.658-.691.863-2.007 1.552-3.95 2.066-1.574.405-3.277.625-5.105.662l-.509-1.268c1.858-.165 3.167-.33 3.925-.496 1.494-.33 2.52-.837 3.083-1.515.452-.553.674-1.608.674-3.17v-.523c-2.108.625-4.316.936-6.627.936-1.517 0-2.856-.31-4.01-.936-1.294-.68-1.942-1.544-1.942-2.59V7.845l3.083-.69v8.433c0 .901.445 1.595 1.335 2.082.89.486 2.044.72 3.457.702 1.413-.02 2.927-.376 4.536-1.075V7.46h3.082V18.4zm12.033 1.295c-.368.02-.705.028-1.016.028-1.743 0-3.102-.27-4.073-.815-.968-.543-1.454-1.294-1.454-2.253V8.726h-2.111V7.46h2.111V4.097l3.079-.716V7.46h3.463v1.266h-3.463v7.873c0 .756.31 1.291.93 1.604.534.258 1.38.405 2.534.442v1.049zm18.662-.165h-3.082v-7.77c0-.791-.283-1.472-.846-2.04-.651-.643-1.555-.964-2.715-.964-1.413 0-3.18.486-5.301 1.46v9.314H99.99V.956l3.083-.634V8.78c1.969-.936 4.121-1.405 6.458-1.405 1.632 0 2.954.359 3.966 1.075 1.015.715 1.52 1.607 1.52 2.673v8.405zM131.4 13.26c0-1.264-.367-2.308-1.099-3.133-.87-1.007-2.222-1.538-4.05-1.593-3.379.128-5.066 1.71-5.066 4.74 0 1.39.351 2.55 1.059 3.482.904 1.187 2.26 1.773 4.067 1.753 3.393-.018 5.089-1.767 5.089-5.248zm3.376.014c0 1.8-.705 3.297-2.111 4.493-1.548 1.339-3.686 2.01-6.414 2.01-2.705 0-4.813-.671-6.334-2.01-1.379-1.196-2.067-2.694-2.067-4.493 0-1.692.745-3.114 2.236-4.273 1.575-1.229 3.646-1.845 6.205-1.845 2.56 0 4.644.616 6.249 1.845 1.491 1.159 2.236 2.581 2.236 4.273zm17.671 6.254h-3.082v-8.21c0-.9-.415-1.603-1.244-2.11-.83-.504-1.936-.749-3.315-.729a10.22 10.22 0 00-4.179.936v10.113h-3.082V9.166c1.774-.843 3.406-1.394 4.897-1.652 1.406-.24 2.647-.358 3.716-.358.732 0 1.42.046 2.067.138 1.211.183 2.196.522 2.954 1.02.847.55 1.268 1.211 1.268 1.984v9.23zM19.001 1.03c-1.586.005-3.1.093-4.433.247-3.925.453-4.638 1.401-4.638 3.15v2.309h9.277v.77H6.448c-2.696 0-5.057 1.057-5.795 3.07-.852 2.308-.89 3.748 0 6.158.66 1.793 2.234 3.071 4.93 3.071h3.19v-2.767c0-2 2.65-3.764 5.795-3.764h9.266c2.58 0 4.639-1.387 4.639-3.079V4.427c0-1.642-2.121-2.876-4.639-3.15a44.031 44.031 0 00-4.833-.247zm-5.017 1.857c.959 0 1.741.52 1.741 1.158 0 .637-.782 1.151-1.74 1.151-.962 0-1.741-.514-1.741-1.15 0-.64.779-1.159 1.74-1.159z" fill="#8A8A8A"/><path d="M29.63 7.505v2.69c0 2.086-2.708 3.842-5.796 3.842h-9.266c-2.538 0-4.638 1.418-4.638 3.078v5.769c0 1.642 2.186 2.608 4.638 3.079 2.937.563 5.753.665 9.266 0 2.336-.442 4.639-1.33 4.639-3.079v-2.309h-9.266v-.77H33.11c2.696 0 3.7-1.228 4.639-3.071.968-1.898.927-3.723 0-6.157-.667-1.753-1.94-3.072-4.639-3.072h-3.48zm-5.212 14.61c.962 0 1.74.514 1.74 1.15 0 .639-.778 1.158-1.74 1.158-.958 0-1.74-.52-1.74-1.158 0-.636.782-1.15 1.74-1.15zM158.45 5.665h.54V3.452h1.28v-.264h-3.101v.264h1.281v2.213zm2.299 0h.462V3.643l1.002 2.022h.514l1.044-2.015v2.015h.504V3.188h-.666l-1.141 2.122-.974-2.122h-.745v2.477z" fill="#8A8A8A"/><path opacity=".444" d="M31.744 29.884c0 .207-.322.412-.947.603-.624.19-1.54.364-2.695.51a56.258 56.258 0 01-4.033.342c-1.508.079-3.124.12-4.757.12-1.633 0-3.25-.041-4.758-.12a56.258 56.258 0 01-4.033-.342c-1.154-.146-2.07-.32-2.695-.51-.624-.191-.946-.396-.946-.603 0-.207.322-.411.946-.602.625-.191 1.54-.365 2.695-.51a56.32 56.32 0 014.034-.342 90.78 90.78 0 014.757-.12c1.633 0 3.249.04 4.757.12a56.32 56.32 0 014.034.341c1.154.146 2.07.32 2.694.51.625.192.947.396.947.603z" fill="#8A8A8A"/></svg>