<svg width="50" height="52" fill="none" xmlns="http://www.w3.org/2000/svg"><path fill="#424242" d="M0 0h49.822v52H0z"/><path fill-rule="evenodd" clip-rule="evenodd" d="M44.25 11.93h-1.753V5.203h1.65v.753c.206-.452.721-.853 1.391-.904 1.135-.05 1.908.603 1.908 2.009v4.87h-1.804V6.86c0-.602 0-1.105-.413-1.205-.155-.05-.412 0-.619.15-.257.252-.36.553-.36 1.055v5.072zM13.776 8.567c0 1.255 0 2.26-.206 2.762-.155.25-.31.402-.67.402-.31 0-.516-.151-.619-.402-.258-.502-.258-1.507-.258-2.762 0-1.205 0-2.259.257-2.762.104-.25.31-.401.62-.401.36 0 .515.15.67.401.258.502.206 1.557.206 2.763v-.001zm.67-2.912c-.413-.352-.928-.603-1.547-.603-.618 0-1.082.252-1.546.603-.722.603-1.186 1.707-1.186 2.912 0 1.255.464 2.31 1.186 2.913.464.35.928.602 1.546.602.619 0 1.135-.251 1.548-.602.773-.603 1.185-1.658 1.185-2.913 0-1.205-.412-2.31-1.185-2.912h-.001zm17.995 8.838V16.3h-.36c-.207-.754-.516-1.406-1.342-1.456-.515-.05-.979.251-1.03.702-.052.453.102.853 1.03 1.357 1.187.652 2.115.953 2.115 2.31 0 1.455-1.29 2.159-2.372 2.159H28.42v-2.51h.36c.26 1.304.671 2.108 1.651 2.158.62 0 1.082-.352 1.082-1.004 0-.653-.411-1.055-1.39-1.607-1.084-.653-1.754-1.055-1.754-1.958 0-1.205.877-1.958 2.269-1.958h1.804zm2.269-2.561V7.06c0-1.406-.773-2.06-1.908-2.009a1.74 1.74 0 00-1.444.954c-.257-.703-.825-1.004-1.65-.954-.67.05-1.186.452-1.392.904v-.753h-1.598v6.728h1.753V6.86c0-.502.051-.804.361-1.055.206-.15.413-.2.567-.15.412.1.412.603.412 1.205v5.071h1.754V6.81c0-.453.102-.754.36-1.005.207-.15.413-.201.567-.15.413.1.465.602.465 1.204v5.072h1.753zm-17.892 0h1.804V3.796H16.82v8.135zm6.084-6.176c.36.502.36 1.706.36 2.66 0 1.005.053 2.31-.36 2.862-.154.202-.31.302-.567.302-.36 0-.567-.402-.67-1.055-.052-.602-.052-1.355-.052-2.159 0-1.355.103-2.862.774-2.862.257 0 .36.1.515.252zm2.115 6.176V3.796h-1.806v1.908c-.154-.351-.515-.602-1.03-.602-1.29 0-2.32 1.305-2.372 3.314-.052 1.356.412 3.615 2.217 3.615.722 0 1.134-.402 1.29-.754v.654h1.7zm14.024-4.017l-.568.35c-.566.352-.669.805-.721 1.306-.051.402-.051.753 0 1.356.051.553.413.653.721.553.362-.151.568-.804.568-1.507V7.914zm1.03-2.511c.465.252.774.652.774 1.557v4.97h-1.701v-.753c-.206.553-.773.904-1.547.904-.618 0-1.701-.3-1.701-1.857 0-1.457.98-1.758 2.063-2.21.98-.402 1.082-.452 1.082-.854V6.055c0-.451-.258-.652-.774-.652-.205.05-.566.15-.566.401-.053.302.309.302.36.754.052.703-.515.953-1.03.904-.362 0-.775-.2-.826-.753-.051-.905.98-1.658 2.423-1.658.67 0 1.083.151 1.444.352zm-26.553 11.9l-.567.352c-.567.351-.67.803-.722 1.305-.05.402-.05.804 0 1.356 0 .602.361.703.67.552.413-.15.619-.752.619-1.506v-2.06zm1.031-2.51c.464.3.722.652.722 1.556v5.021h-1.649v-.753c-.206.502-.773.853-1.547.853-.67 0-1.701-.25-1.701-1.807 0-1.456.98-1.757 2.01-2.21 1.032-.45 1.135-.501 1.135-.853v-1.105c0-.501-.258-.702-.773-.652-.207 0-.567.1-.567.351-.052.352.309.352.36.804.052.652-.515.903-1.031.903-.36-.05-.773-.25-.825-.803-.052-.853.98-1.607 2.423-1.607.671 0 1.083.1 1.444.302zM27.03 16.5c0-1.406-.774-2.11-1.908-2.008-.567.05-1.032.3-1.29.652v-1.958h-1.753v4.62c0 1.706-1.238 3.313-2.476 3.263-.876 0-1.082-.653-1.186-1.355-.154-1.005-.154-2.16-.051-3.415.104-.803.31-1.456.929-1.456.464 0 .515.301.309.502-.207.252-.516.502-.362 1.054.155.603 1.135.703 1.6.252.36-.402.309-1.055.05-1.457-.309-.502-.824-.702-1.597-.702-.98 0-2.836.853-2.836 3.564 0 2.913 1.907 3.415 2.99 3.415 1.238 0 2.32-1.055 2.63-1.909v1.808h1.753V16.3c0-.502.102-.803.36-1.055.207-.15.465-.2.62-.15.412.1.412.603.412 1.205v5.071h1.805V16.5zM8.982 3.646v2.862h-.361c-.31-1.406-.98-2.461-1.907-2.51-.62-.051-.98.3-1.29.802-.309.603-.464 1.858-.464 3.364 0 1.406.052 2.46.207 3.214.102.352.36.904 1.03.904.362 0 .62-.1.774-.301.257-.301.31-.904.31-1.306V9.32c0-.502-.155-.803-.413-.954-.206-.1-.516-.1-.67-.15v-.352h2.887v7.181h-.36c-.156-.552-.258-.955-.517-1.406-.257-.452-.721-.954-1.494-.954-.826-.05-1.445.452-1.445 1.205 0 1.004.62 1.255 1.754 1.858 1.082.602 2.475 1.105 2.475 2.861 0 1.708-1.496 2.763-3.197 2.763H3.568v-3.465h.36c.465 2.611 1.6 3.063 2.373 3.063.98 0 1.443-.603 1.443-1.456-.051-1.105-.825-1.507-1.907-2.06-1.547-.852-2.268-1.254-2.268-2.66.05-1.206 1.03-1.958 2.113-2.26-2.268-.251-2.939-2.26-2.887-4.419 0-2.159 1.289-4.468 3.815-4.468h2.372z" fill="#fff"/></svg>