<svg version="1.0" xmlns="http://www.w3.org/2000/svg" width="533.333" height="164" viewBox="0 0 400 123"><path d="M269.5.6c-2.2.2-11 .9-19.5 1.5-54.2 3.8-114.9 15.8-165.5 32.7l-17 5.7 5.5.6c8.7.9 12 3.5 12 9.3 0 2.4-.3 2.6-4.9 2.6-4.4 0-5-.3-5.3-2.3-.2-1.7-1.1-2.3-3.4-2.5-2.1-.2-3.3.2-3.7 1.2-1.1 2.9.4 4.6 7.5 8.2C83.7 62.1 86 64.9 86 70.5c0 8.1-6.3 12.2-17 11.2-6.8-.6-10.5-2.7-11.9-6.9-2.1-6.1-1.7-6.8 4.2-6.8 5.1 0 5.3.1 6.2 3.2.8 2.5 1.6 3.4 3.6 3.6 3.1.4 5.3-2 4.4-4.7-.3-1.1-3.9-3.8-8-6-4-2.3-8.1-5.1-8.9-6.3-1.9-2.6-2.1-9.9-.4-11.6 3.1-3.1-1.1-1.5-15.8 5.8-45.1 22.5-54.9 44.1-26.1 58 9.6 4.6 20.2 7.4 38.2 10.2 19 2.9 61.8 3.6 90.5 1.4 64.1-4.8 130.8-18.3 179.5-36.4l10-3.7-5.7-.5c-6.8-.6-10.9-3.3-12.1-8-.5-1.9-.7-8.3-.5-14.3.3-10.8.3-10.9 3.4-13.7 8.2-7.3 24-3.8 25.9 5.7l.7 3.3h-5.6c-4.8 0-5.6-.3-5.6-1.9 0-2.7-2.6-4.4-5.5-3.7l-2.6.7.3 12.2.3 12.2h3.5c3.4 0 3.5-.1 3.8-4.3.3-3.7.1-4.2-1.7-4.2-1.7 0-2.1-.6-2.1-3v-3h15v6c0 3.3-.6 7.6-1.4 9.5-1.4 3.4-1.4 3.4.8 2.5 5.4-2 23.6-11.6 30.1-15.7 13.8-8.9 21-16.6 23.5-25.1C405.7 14 363-.4 292.5.2c-10.4.1-20.8.3-23 .4zM212.1 42c4.4 1.2 6.4 3.4 7.4 7.7l.7 3.3h-5.6c-4.9 0-5.5-.2-5.8-2.3-.2-1.7-1-2.2-3.3-2.2-2.1 0-3.1.5-3.3 1.8-.5 2.6 1.4 4.5 7.7 7.7 8.1 4.1 10.4 6.9 10.3 12.7 0 4-.5 5.2-3 7.5-5.7 5-18.2 4.9-23.4-.2-2-2.1-2.8-3.8-2.8-6.4V68h5.5c5.1 0 5.5.2 5.5 2.4 0 3.2 2.4 5 5.5 4.2 1.8-.5 2.5-1.3 2.5-3 0-2.8-1.9-4.6-8.6-7.9-6-3-10.4-7.8-10.4-11.3 0-2.1 2.5-8.4 3.3-8.4.1 0 2-.7 4.2-1.5 4.8-1.7 8.7-1.8 13.6-.5zm-93.1.3c0 .2 1.6 8.2 3.5 17.7s3.5 18.2 3.5 19.2c0 1.7-.7 1.9-5.2 1.6l-5.3-.3-2.3-15.5c-1.3-8.5-2.6-16.2-2.9-17-.3-.8-1.6 4.8-2.9 12.5-3.8 23-2.7 20.5-8.4 20.5-2.7 0-5.1-.3-5.3-.8-.4-.6 5.6-33.4 6.8-37 .3-.8 3.1-1.2 9.5-1.2 4.9 0 9 .1 9 .3zm33.4.6c.3.4 1.5 6.7 2.7 13.9 1.2 7.2 2.5 12.9 2.9 12.7.4-.2 1-2.6 1.4-5.2.3-2.7 1.3-8.7 2.2-13.6l1.6-8.7h16.5l.6 18.7c.4 10.3.3 19.1-.2 19.6-.4.4-2.8.7-5.2.5l-4.4-.3-.5-16-.5-16-2.9 15c-1.6 8.2-3.1 15.6-3.4 16.3-.3.9-2.1 1.2-5.6 1l-5.1-.3-3-15.7c-1.7-8.6-3.4-16-3.8-16.4-.4-.4-.7 6.8-.7 15.9V81h-10v-9.8c0-5.3.3-14.1.7-19.5l.6-9.7h7.8c4.3 0 8 .4 8.3.9zm88.4 15.3l.3 15.8 2.6.6c4.6 1.2 5.3-1.2 5.3-17.8V42h10v33.2l-2.8 2.8c-6 5.9-21.3 4.7-24.7-2.1-1.1-2.1-1.5-6.7-1.5-18.4V41.9l5.3.3 5.2.3.3 15.7zm49.2-3.4c2.2 7 4 13.3 4 13.9 0 .7.5 1.5 1.1 1.9.9.5 1-3.2.4-14l-.7-14.7 5.1.3 5.2.3v37h-14.5l-4.7-14.3c-2.5-7.9-4.9-14.6-5.3-14.9-.3-.4-.3 6.2.1 14.5l.6 15.2H271V42h14.9l4.1 12.8z" fill="#424242"/></svg>