<svg width="86" height="11" fill="none" xmlns="http://www.w3.org/2000/svg"><g clip-path="url(#clip0)"><path d="M42.336 4.422h-5.388V.331h-1.63V10.72h1.63V5.797h5.388v4.923h1.613V.33h-1.613v4.091zM26.436.297C25.846.28 24.644.28 23.58.28v10.431h1.648V6.756c.412 0 1.261-.034 1.947-.05.962-.018 3.467-.493 3.45-3.353C30.65.127 27.037.297 26.437.297zm-.085 5.076h-1.09v-3.76h.927c.429 0 2.96-.187 3.037 1.757.103 1.91-1.896 2.003-2.874 2.003zM11.23.28l.018 10.431h6.616V9.353h-4.968V5.814h3.518c0-.297-.018-.73 0-1.299h-3.518V1.672h4.968c-.017-.823 0-1.392 0-1.392h-6.633zM1.614 2.826c0-1.706 2.283-1.774 3.63-.679L5.74.738C1.81-1.129.017 1.341.017 2.92c0 3.777 5.414 2.97 4.634 5.627-.275.968-2.017 1.52-4.025.314-.145.408-.386.9-.626 1.392 2.651 1.375 6.092.713 6.204-2.122.154-3.565-4.59-3.31-4.59-5.305zm69.537.382C70.91.11 67.872.348 67.203.314 66.645.297 65.46.28 64.44.28v10.414h1.647v-4.38c.558 0 .738 0 1.579-.033l3.003 4.413h2L69.347 6.01c.892-.322 1.93-1.078 1.802-2.8zm-4.042 1.885c-.369 0-.652 0-1.02-.017V1.553h.866c.412 0 2.574-.127 2.763 1.579.231 2.02-2.163 1.96-2.609 1.96zM82.021.297h-1.905l-3.45 10.431h1.631c.515-1.884.687-2.419.687-2.419l4.264-.017c.498 1.392.867 2.453.867 2.453h1.69L82.021.297zm-2.66 6.816l1.665-5.152h.017l1.742 5.135-3.424.017zM54.177 0c-3.355 0-5.543 2.453-5.543 5.5s2.188 5.5 5.543 5.5 5.543-2.453 5.543-5.5S57.532 0 54.177 0zm0 9.498c-2.462 0-3.852-1.774-3.852-3.998 0-2.198 1.39-3.998 3.852-3.998 2.446 0 3.853 1.774 3.853 3.998 0 2.198-1.39 3.998-3.853 3.998z" fill="#666"/></g><defs><clipPath id="clip0"><path fill="#fff" d="M0 0h85.805v11H0z"/></clipPath></defs></svg>